<svg height="33" viewBox="-4 0 512 512" width="33" xmlns="http://www.w3.org/2000/svg" class=""><g><path d="m475.117188 43.390625h-319.554688c16.53125 18.429687 26.675781 42.710937 26.675781 69.421875h321.082031v-41.21875c0-15.578125-12.625-28.203125-28.203124-28.203125zm0 0" fill="#dd352e" data-original="#DD352E" class="" style="fill:#665F79" data-old_color="#BE6C84"></path><path d="m208.269531 112.8125h-208.269531v373.039062c0 14.441407 11.707031 26.148438 26.148438 26.148438h451.027343c14.441407 0 26.144531-11.707031 26.144531-26.148438v-373.039062zm0 0" fill="#f2ecbf" data-original="#F2ECBF" class="" style="fill:#EEEEEE" data-old_color="#eeeeee"></path><g fill="#28384c" fill-rule="evenodd"><path d="m312.40625 156.203125h52.066406v52.066406h-52.066406zm0 0" data-original="#000000" class="" style="fill:#665F79" data-old_color="#000000"></path><path d="m399.1875 156.203125h52.066406v52.066406h-52.066406zm0 0" data-original="#000000" class="" style="fill:#665F79" data-old_color="#000000"></path><path d="m52.066406 242.984375h52.070313v52.066406h-52.070313zm0 0" data-original="#000000" class="" style="fill:#665F79" data-old_color="#000000"></path><path d="m138.847656 242.984375h52.066406v52.066406h-52.066406zm0 0" data-original="#000000" class="" style="fill:#665F79" data-old_color="#000000"></path><path d="m225.628906 242.984375h52.066406v52.066406h-52.066406zm0 0" data-original="#000000" class="" style="fill:#665F79" data-old_color="#000000"></path><path d="m52.066406 329.761719h52.070313v52.070312h-52.070313zm0 0" data-original="#000000" class="" style="fill:#665F79" data-old_color="#000000"></path><path d="m138.847656 329.761719h52.066406v52.070312h-52.066406zm0 0" data-original="#000000" class="" style="fill:#665F79" data-old_color="#000000"></path><path d="m225.628906 329.761719h52.066406v52.070312h-52.066406zm0 0" data-original="#000000" class="" style="fill:#665F79" data-old_color="#000000"></path><path d="m52.066406 416.542969h52.070313v52.066406h-52.070313zm0 0" data-original="#000000" class="" style="fill:#665F79" data-old_color="#000000"></path><path d="m138.847656 416.542969h52.066406v52.066406h-52.066406zm0 0" data-original="#000000" class="" style="fill:#665F79" data-old_color="#000000"></path><path d="m225.628906 416.542969h52.066406v52.066406h-52.066406zm0 0" data-original="#000000" class="" style="fill:#665F79" data-old_color="#000000"></path><path d="m312.40625 242.984375h52.066406v52.066406h-52.066406zm0 0" data-original="#000000" class="" style="fill:#665F79" data-old_color="#000000"></path><path d="m312.40625 329.761719h52.066406v52.070312h-52.066406zm0 0" data-original="#000000" class="" style="fill:#665F79" data-old_color="#000000"></path><path d="m312.40625 416.542969h52.066406v52.066406h-52.066406zm0 0" data-original="#000000" class="" style="fill:#665F79" data-old_color="#000000"></path><path d="m399.1875 242.984375h52.066406v52.066406h-52.066406zm0 0" data-original="#000000" class="" style="fill:#665F79" data-old_color="#000000"></path><path d="m399.1875 329.761719h52.066406v52.070312h-52.066406zm0 0" data-original="#000000" class="" style="fill:#665F79" data-old_color="#000000"></path><path d="m399.1875 416.542969h52.066406v52.066406h-52.066406zm0 0" data-original="#000000" class="" style="fill:#665F79" data-old_color="#000000"></path></g><path d="m425.21875 52.066406c-4.789062 0-8.675781-3.878906-8.675781-8.675781 0-23.925781 19.464843-43.390625 43.390625-43.390625 4.789062 0 8.675781 3.878906 8.675781 8.679688 0 4.796874-3.886719 8.675781-8.675781 8.675781-14.355469 0-26.035156 11.679687-26.035156 26.035156 0 4.796875-3.886719 8.675781-8.679688 8.675781zm0 0" fill="#e7eced" data-original="#E7ECED" class="" style="fill:#DDDDDD" data-old_color="#dddddd"></path><path d="m425.21875 86.78125c-4.789062 0-8.675781-3.878906-8.675781-8.679688v-34.710937c0-4.800781 3.886719-8.679687 8.675781-8.679687 4.792969 0 8.679688 3.878906 8.679688 8.679687v34.710937c0 4.800782-3.886719 8.679688-8.679688 8.679688zm0 0" fill="#e7eced" data-original="#E7ECED" class="" style="fill:#DDDDDD" data-old_color="#dddddd"></path><path d="m208.269531 112.8125c0 57.511719-46.621093 104.136719-104.132812 104.136719s-104.136719-46.625-104.136719-104.136719 46.625-104.132812 104.136719-104.132812 104.132812 46.621093 104.132812 104.132812zm0 0" fill="#e7eced" data-original="#E7ECED" class="" style="fill:#DDDDDD" data-old_color="#dddddd"></path><path d="m130.167969 121.492188h-26.03125c-4.792969 0-8.679688-3.878907-8.679688-8.679688 0-4.796875 3.886719-8.675781 8.679688-8.675781h26.03125c4.792969 0 8.679687 3.878906 8.679687 8.675781 0 4.800781-3.886718 8.679688-8.679687 8.679688zm0 0" fill="#28384c" data-original="#28384C" class="active-path" style="fill:#665F79" data-old_color="#BE6C84"></path><path d="m104.136719 121.492188c-4.792969 0-8.679688-3.878907-8.679688-8.679688v-43.390625c0-4.796875 3.886719-8.675781 8.679688-8.675781 4.789062 0 8.675781 3.878906 8.675781 8.675781v43.390625c0 4.800781-3.886719 8.679688-8.675781 8.679688zm0 0" fill="#28384c" data-original="#28384C" class="active-path" style="fill:#665F79" data-old_color="#BE6C84"></path><path d="m451.253906 86.78125h-52.066406c-4.792969 0-8.679688-3.878906-8.679688-8.679688 0-4.796874 3.886719-8.679687 8.679688-8.679687h52.066406c4.789063 0 8.679688 3.882813 8.679688 8.679687 0 4.800782-3.890625 8.679688-8.679688 8.679688zm0 0" fill="#ebba16" data-original="#EBBA16" class="" style="fill:#BE6C84" data-old_color="#EBBA16"></path><path d="m171.347656 33.332031-12.601562 12.601563c-3.394532 3.390625-3.394532 8.875 0 12.269531 1.691406 1.691406 3.914062 2.542969 6.136718 2.542969 2.21875 0 4.441407-.851563 6.132813-2.542969l12.601563-12.601563c-3.75-4.414062-7.855469-8.519531-12.269532-12.269531zm0 0" fill="#7383bf" data-original="#7383BF" class="" style="fill:#AAAAAA" data-old_color="#aaaaaa"></path><path d="m104.136719 8.679688c-2.933594 0-5.808594.199218-8.679688.433593v25.597657c0 4.800781 3.886719 8.679687 8.679688 8.679687 4.789062 0 8.675781-3.878906 8.675781-8.679687v-25.597657c-2.871094-.234375-5.742188-.433593-8.675781-.433593zm0 0" fill="#7383bf" data-original="#7383BF" class="" style="fill:#AAAAAA" data-old_color="#aaaaaa"></path><path d="m24.652344 45.601562 12.601562 12.601563c1.691406 1.691406 3.914063 2.542969 6.136719 2.542969s4.441406-.851563 6.132813-2.542969c3.394531-3.394531 3.394531-8.878906 0-12.269531l-12.597657-12.601563c-4.417969 3.75-8.523437 7.855469-12.273437 12.269531zm0 0" fill="#7383bf" data-original="#7383BF" class="" style="fill:#AAAAAA" data-old_color="#aaaaaa"></path><path d="m171.015625 167.425781c-3.382813-3.394531-8.886719-3.394531-12.269531 0-3.394532 3.390625-3.394532 8.875 0 12.269531l12.601562 12.601563c4.425782-3.742187 8.519532-7.847656 12.269532-12.273437zm0 0" fill="#7383bf" data-original="#7383BF" class="" style="fill:#AAAAAA" data-old_color="#aaaaaa"></path><path d="m104.136719 182.238281c-4.792969 0-8.679688 3.878907-8.679688 8.675781v25.601563c2.871094.234375 5.746094.433594 8.679688.433594 2.933593 0 5.804687-.199219 8.675781-.433594v-25.601563c0-4.796874-3.886719-8.675781-8.675781-8.675781zm0 0" fill="#7383bf" data-original="#7383BF" class="" style="fill:#AAAAAA" data-old_color="#aaaaaa"></path><path d="m173.558594 112.8125c0 4.800781 3.886718 8.679688 8.679687 8.679688h25.589844c.242187-2.875.441406-5.746094.441406-8.679688s-.199219-5.804688-.441406-8.675781h-25.589844c-4.792969 0-8.679687 3.878906-8.679687 8.675781zm0 0" fill="#7383bf" data-original="#7383BF" class="" style="fill:#AAAAAA" data-old_color="#aaaaaa"></path><path d="m26.035156 104.136719h-25.59375c-.242187 2.871093-.441406 5.742187-.441406 8.675781s.199219 5.804688.441406 8.679688h25.59375c4.789063 0 8.675782-3.878907 8.675782-8.679688 0-4.796875-3.886719-8.675781-8.675782-8.675781zm0 0" fill="#7383bf" data-original="#7383BF" class="" style="fill:#AAAAAA" data-old_color="#aaaaaa"></path><path d="m37.253906 167.425781-12.601562 12.597657c3.75 4.425781 7.847656 8.53125 12.273437 12.273437l12.597657-12.601563c3.394531-3.394531 3.394531-8.878906 0-12.269531-3.382813-3.394531-8.882813-3.394531-12.269532 0zm0 0" fill="#7383bf" data-original="#7383BF" class="" style="fill:#AAAAAA" data-old_color="#aaaaaa"></path></g> </svg>