<svg version="1.1" id="Layer_1" xmlns="http://www.w3.org/2000/svg" xmlns:xlink="http://www.w3.org/1999/xlink" x="0px" y="0px" viewBox="0 0 512 512" style="enable-background:new 0 0 512 512;" xml:space="preserve" width="512" height="512" class=""><g><path style="fill:#AAAAAA" d="M422.957,512H89.043c-9.217,0-16.696-7.479-16.696-16.696V50.087C72.348,22.468,94.816,0,122.435,0  h267.13c27.619,0,50.087,22.468,50.087,50.087v445.217C439.652,504.521,432.174,512,422.957,512z" data-original="#C3C8D6" class="" data-old_color="#aaaaaa"></path><path style="fill:#969696" d="M389.565,0H256v512h166.957c9.217,0,16.696-7.479,16.696-16.696V50.087  C439.652,22.468,417.184,0,389.565,0z" data-original="#B8BDC9" class="active-path" data-old_color="#929292"></path><path style="fill:#E7ECFD" d="M356.174,311.652H155.826c-9.217,0-16.696-7.479-16.696-16.696V83.478  c0-9.217,7.479-16.696,16.696-16.696h200.348c9.217,0,16.696,7.479,16.696,16.696v211.478  C372.87,304.174,365.391,311.652,356.174,311.652z" data-original="#E7ECFD" class=""></path><path style="fill:#DAE0F0" d="M356.174,66.783H256v244.87h100.174c9.217,0,16.696-7.479,16.696-16.696V83.478  C372.87,74.261,365.391,66.783,356.174,66.783z" data-original="#DAE0F0" class=""></path><path style="fill:#BE6C84" d="M172.522,278.261h166.957V100.174H172.522V278.261z" data-original="#95D3FC" class="" data-old_color="#95D3FC"></path><rect x="256" y="100.174" style="fill:#A94F6A" width="83.478" height="178.087" data-original="#5AAAE7" class="" data-old_color="#AA506B"></rect><rect x="239.304" y="66.783" style="fill:#E7ECFD" width="33.391" height="244.87" data-original="#E7ECFD" class=""></rect><rect x="256" y="66.783" style="fill:#DAE0F0" width="16.696" height="244.87" data-original="#DAE0F0" class=""></rect><rect x="139.13" y="166.957" style="fill:#E7ECFD" width="233.739" height="33.391" data-original="#E7ECFD" class=""></rect><rect x="256" y="166.957" style="fill:#DAE0F0" width="116.87" height="33.391" data-original="#DAE0F0" class=""></rect><path style="fill:#665F79" d="M489.739,478.609H272.696v-16.696c0-9.217-7.479-16.696-16.696-16.696s-16.696,7.479-16.696,16.696  v16.696h-33.391v-36.263c19.433-6.891,33.391-25.449,33.391-47.215c0-21.767-13.959-40.324-33.391-47.215v-36.263h33.391v16.696  c0,9.22,7.475,16.696,16.696,16.696l0,0c9.22,0,16.696-7.475,16.696-16.696v-16.696h217.043c9.217,0,16.696-7.479,16.696-16.696  c0-9.217-7.479-16.696-16.696-16.696H272.696h-33.391H22.261c-9.217,0-16.696,7.479-16.696,16.696  c0,9.217,7.479,16.696,16.696,16.696h16.696v36.263c-19.433,6.891-33.391,25.449-33.391,47.215  c0,21.767,13.959,40.324,33.391,47.215v36.263H22.261c-9.217,0-16.696,7.479-16.696,16.696c0,9.217,7.479,16.696,16.696,16.696  h467.478c9.217,0,16.696-7.479,16.696-16.696C506.435,486.087,498.956,478.609,489.739,478.609z M72.348,442.346  c19.433-6.891,33.391-25.449,33.391-47.215c0-21.767-13.959-40.324-33.391-47.215v-36.263h33.391v16.696  c0,9.217,7.479,16.696,16.696,16.696s16.696-7.479,16.696-16.696v-16.696h33.391v36.263c-19.433,6.891-33.391,25.449-33.391,47.215  c0,21.767,13.959,40.324,33.391,47.215v36.263H139.13v-16.696c0-9.217-7.479-16.696-16.696-16.696s-16.696,7.479-16.696,16.696  v16.696H72.348V442.346z" data-original="#7F8189" class="" data-old_color="#7F8189"></path><g>
	<path style="fill:#AAAAAA" d="M55.652,378.435c-9.206,0-16.696,7.49-16.696,16.696c0,9.206,7.49,16.696,16.696,16.696   s16.696-7.49,16.696-16.696C72.348,385.924,64.858,378.435,55.652,378.435z" data-original="#C3C8D6" class="" data-old_color="#aaaaaa"></path>
	<path style="fill:#AAAAAA" d="M189.217,378.435c-9.206,0-16.696,7.49-16.696,16.696c0,9.206,7.49,16.696,16.696,16.696   s16.696-7.49,16.696-16.696C205.913,385.924,198.423,378.435,189.217,378.435z" data-original="#C3C8D6" class="" data-old_color="#aaaaaa"></path>
</g><path style="fill:#564D69" d="M506.435,395.13c0-21.767-13.959-40.324-33.391-47.215v-36.263h16.696  c9.217,0,16.696-7.479,16.696-16.696c0-9.217-7.479-16.696-16.696-16.696H272.696H256v33.391v33.391  c9.22,0,16.696-7.475,16.696-16.696v-16.696h33.391v36.263c-19.433,6.891-33.391,25.449-33.391,47.215  c0,21.767,13.959,40.324,33.391,47.215v36.263h-33.391v-16.696c0-9.217-7.479-16.696-16.696-16.696v33.391V512h233.739  c9.217,0,16.696-7.479,16.696-16.696c0-9.217-7.479-16.696-16.696-16.696h-16.696v-36.263  C492.476,435.455,506.435,416.897,506.435,395.13z M406.261,478.609v-16.696c0-9.217-7.479-16.696-16.696-16.696  c-9.217,0-16.696,7.479-16.696,16.696v16.696h-33.391v-36.263c19.433-6.891,33.391-25.449,33.391-47.215  c0-21.767-13.959-40.324-33.391-47.215v-36.263h33.391v16.696c0,9.217,7.479,16.696,16.696,16.696  c9.217,0,16.696-7.479,16.696-16.696v-16.696h33.391v36.263c-19.433,6.891-33.391,25.449-33.391,47.215  c0,21.767,13.959,40.324,33.391,47.215v36.263H406.261z" data-original="#757880" class="" data-old_color="#564E69"></path><g>
	<path style="fill:#969696" d="M322.783,378.435c-9.206,0-16.696,7.49-16.696,16.696c0,9.206,7.49,16.696,16.696,16.696   c9.206,0,16.696-7.49,16.696-16.696C339.478,385.924,331.989,378.435,322.783,378.435z" data-original="#B8BDC9" class="active-path" data-old_color="#929292"></path>
	<path style="fill:#969696" d="M456.348,378.435c-9.206,0-16.696,7.49-16.696,16.696c0,9.206,7.49,16.696,16.696,16.696   c9.206,0,16.696-7.49,16.696-16.696C473.043,385.924,465.554,378.435,456.348,378.435z" data-original="#B8BDC9" class="active-path" data-old_color="#929292"></path>
</g></g> </svg>