<svg version="1.1" id="Layer_1" xmlns="http://www.w3.org/2000/svg" xmlns:xlink="http://www.w3.org/1999/xlink" x="0px" y="0px" viewBox="0 0 512 512" style="enable-background:new 0 0 512 512;" xml:space="preserve" width="33" height="33" class=""><g><path style="fill:#A2B1B7" d="M319.578,0c-51.81,0-93.96,42.151-93.96,93.96v186.233h33.758V93.96  c0-33.196,27.007-60.202,60.202-60.202S379.78,60.765,379.78,93.96v84.958h33.758V93.96C413.538,42.151,371.388,0,319.578,0z" data-original="#A2B1B7" class=""></path><rect x="374.154" y="156.413" style="fill:#C4D3D9" width="45.011" height="288.07" data-original="#C4D3D9" class=""></rect><path style="fill:#A2B1B7" d="M135.708,0c-9.322,0-16.879,7.557-16.879,16.879V145.16h33.758V16.879  C152.587,7.557,145.03,0,135.708,0z" data-original="#A2B1B7" class=""></path><rect x="107.576" y="122.655" style="fill:#C4D3D9" width="56.264" height="59.476" data-original="#C4D3D9" class=""></rect><path style="fill:#665F79" d="M180.719,164.852h-45.011l90.022,313.39h33.758V280.193  C259.488,227.713,226.825,182.858,180.719,164.852z" data-original="#ED6350" class="" data-old_color="#ED6350"></path><path style="fill:#665F79" d="M180.721,172.976l-90.024-8.124c-46.106,18.007-78.769,62.86-78.769,115.342v198.048H225.73V280.193  C225.73,234.38,207.627,194.38,180.721,172.976z" data-original="#F37C4A" class="" data-old_color="#F37C4A"></path><g>
	<path style="fill:#A2B1B7" d="M34.433,410.725c-12.43,0-22.505,10.076-22.505,22.506v56.264c0,12.43,10.076,22.505,22.505,22.505   s22.505-10.076,22.505-22.505v-56.264C56.939,420.801,46.863,410.725,34.433,410.725z" data-original="#414D53" class="active-path" data-old_color="#414D53"></path>
	<path style="fill:#A2B1B7" d="M236.983,410.725c-12.43,0-22.505,10.076-22.505,22.506v56.264c0,12.43,10.076,22.505,22.505,22.505   s22.505-10.076,22.505-22.505v-56.264C259.488,420.801,249.413,410.725,236.983,410.725z" data-original="#414D53" class="active-path" data-old_color="#414D53"></path>
</g><path style="fill:#BE6C84" d="M180.719,164.853v36.571c0,12.378-10.127,22.506-22.506,22.506h-45.011  c-12.378,0-22.505-10.127-22.505-22.506v-36.571c13.953-5.446,29.133-8.44,45.011-8.44S166.766,159.406,180.719,164.853z" data-original="#FBCFA3" class="" data-old_color="#FBCFA3"></path><path style="fill:#748993" d="M424.791,444.484h-33.758v56.264l67.516-22.505C458.549,459.675,443.358,444.484,424.791,444.484z" data-original="#748993" class=""></path><path style="fill:#A2B1B7" d="M424.791,478.242l-45.011,22.505l-45.011-22.505c0-18.567,15.191-33.758,33.758-33.758h22.505  C409.6,444.484,424.791,459.675,424.791,478.242z" data-original="#A2B1B7" class=""></path><polygon style="fill:#A2B1B7" points="466.314,478.242 432.556,495.121 466.314,512 500.072,512 500.072,478.242 " data-original="#414D53" class="active-path" data-old_color="#414D53"></polygon><rect x="293.247" y="478.242" style="fill:#AAAAAA" width="173.067" height="33.758" data-original="#57676E" class="" data-old_color="#aaaaaa"></rect><g>
	<path style="fill:#BE6C84" d="M180.719,419.165H90.697c-4.661,0-8.44-3.779-8.44-8.44c0-4.661,3.779-8.44,8.44-8.44h90.022   c4.661,0,8.44,3.779,8.44,8.44C189.159,415.386,185.38,419.165,180.719,419.165z" data-original="#E64A55" class="" data-old_color="#E64A55"></path>
	<path style="fill:#BE6C84" d="M180.719,385.407H90.697c-4.661,0-8.44-3.779-8.44-8.44s3.779-8.44,8.44-8.44h90.022   c4.661,0,8.44,3.779,8.44,8.44S185.38,385.407,180.719,385.407z" data-original="#E64A55" class="" data-old_color="#E64A55"></path>
	<path style="fill:#BE6C84" d="M180.719,351.648H90.697c-4.661,0-8.44-3.779-8.44-8.44s3.779-8.44,8.44-8.44h90.022   c4.661,0,8.44,3.779,8.44,8.44S185.38,351.648,180.719,351.648z" data-original="#E64A55" class="" data-old_color="#E64A55"></path>
</g></g> </svg>