<svg height="33" viewBox="-4 0 512 512" width="33" xmlns="http://www.w3.org/2000/svg" class=""><g><path d="m446 224.402344v287.597656h-387.542969v-236.261719l-.425781-31.285156 66.035156-70.300781 75.746094-80.636719 52.410156-55.804687 4.222656 4.0625zm0 0" fill="#e8e7e6" data-original="#E8E7E6" class=""></path><path d="m155.796875 252.171875h192.855469v192.855469h-192.855469zm0 0" fill="#ff4440" data-original="#FF4440" class="" style="fill:#665F79" data-old_color="#FF4440"></path><path d="m184.214844 280.589844h53.796875v136.015625h-53.796875zm0 0" fill="#9af4e7" data-original="#9AF4E7" class="" style="fill:#BE6C84" data-old_color="#9AF4E7"></path><path d="m266.433594 280.589844h53.796875v136.015625h-53.796875zm0 0" fill="#9af4e7" data-original="#9AF4E7" class="" style="fill:#BE6C84" data-old_color="#9AF4E7"></path><path d="m132.367188 446.570312c0 28.367188-18.0625 52.519532-43.304688 61.59375-6.914062 2.488282-14.363281 3.835938-22.128906 3.835938-36.144532 0-65.429688-29.292969-65.429688-65.429688 0-36.136718 29.285156-65.429687 65.429688-65.429687 7.765625 0 15.214844 1.347656 22.128906 3.835937 25.238281 9.070313 43.304688 33.222657 43.304688 61.59375zm0 0" fill="#99aa52" data-original="#99AA52" class="" style="fill:#AAAAAA" data-old_color="#aaaaaa"></path><path d="m132.367188 446.570312c0 28.367188-18.0625 52.519532-43.304688 61.59375-25.246094-9.074218-43.304688-33.226562-43.304688-61.59375 0-28.371093 18.058594-52.523437 43.304688-61.59375 25.238281 9.070313 43.304688 33.222657 43.304688 61.59375zm0 0" fill="#adc165" data-original="#ADC165" class="active-path" style="fill:#AAAAAA" data-old_color="#aaaaaa"></path><path d="m449.125 31.542969v228.847656l-65.566406-87.5625-48.597656-98.566406v-42.71875zm0 0" fill="#e8e7e6" data-original="#E8E7E6" class=""></path><path d="m383.558594 31.542969v163.289062l-48.597656-48.597656v-114.691406zm0 0" fill="#d1d1d1" data-original="#D1D1D1" class="" style="fill:#HTTPS:" data-old_color="#https:"></path><path d="m446 224.402344v80.375l-185.292969-185.292969-202.25 202.25v-45.996094l-.425781-31.285156 66.035156-70.300781 132.378906-132.378906zm0 0" fill="#d1d1d1" data-original="#D1D1D1" class="" style="fill:#HTTPS:" data-old_color="#https:"></path><path d="m40.980469 301.6875-40.980469-40.984375 260.703125-260.703125 243.320313 243.320312-40.980469 40.980469-202.339844-202.335937zm0 0" fill="#ff4440" data-original="#FF4440" class="" style="fill:#665F79" data-old_color="#FF4440"></path></g> </svg>