<svg version="1.1" id="Capa_1" xmlns="http://www.w3.org/2000/svg" xmlns:xlink="http://www.w3.org/1999/xlink" x="0px" y="0px" viewBox="0 0 58 58" style="enable-background:new 0 0 58 58;" xml:space="preserve" width="33" height="33" class=""><g><polygon style="fill:#AAAAAA" points="9,21.5 0,21.5 4,17.5 9,17.5 " data-original="#36363A" class="active-path" data-old_color="#aaaaaa"></polygon><polygon style="fill:#AAAAAA" points="49,21.5 58,21.5 54,17.5 49,17.5 " data-original="#36363A" class="active-path" data-old_color="#aaaaaa"></polygon><path style="fill:#665F79" d="M47.066,9.5H10.934C9.866,9.5,9,10.366,9,11.434V26.5v4.264V38.5h40v-7.736V26.5V11.434  C49,10.366,48.134,9.5,47.066,9.5z" data-original="#2F2F31" class="" data-old_color="#2F2F31"></path><polygon style="fill:#665F79" points="49,31.5 53,35.5 53,21.5 49,17.5 " data-original="#232321" class="" data-old_color="#DDDDDD"></polygon><polygon style="fill:#665F79" points="9,31.5 5,35.5 5,21.5 9,17.5 " data-original="#232321" class="" data-old_color="#DDDDDD"></polygon><polygon style="fill:#665F79" points="53,21.5 53,38.5 5,38.5 5,21.5 0,21.5 0,43.5 58,43.5 58,21.5 " data-original="#2E2D2B" class="" data-old_color="#2E2D2B"></polygon><polygon style="fill:#BFA380;" points="10,43.5 9,48.5 11,48.5 16,43.5 " data-original="#BFA380" class=""></polygon><polygon style="fill:#BFA380;" points="50,43.5 51,48.5 49,48.5 44,43.5 " data-original="#BFA380" class=""></polygon><path style="fill:#AAAAAA" d="M5,38.5h4.728H29v-4.75c0-1.795-1.455-3.25-3.25-3.25H11c-2.393,0-4.534,1.056-6,2.721V38.5z" data-original="#515151" class="" data-old_color="#aaaaaa"></path><g>
	<rect x="13" y="13.5" style="fill:#665F79" width="32" height="4" data-original="#232321" class="" data-old_color="#DDDDDD"></rect>
	<polygon style="fill:#665F79" points="13,22.5 13,26.5 25.75,26.5 32.25,26.5 45,26.5 45,22.5  " data-original="#232321" class="" data-old_color="#DDDDDD"></polygon>
</g><path style="fill:#AAAAAA" d="M53,38.5h-4.728H29v-4.75c0-1.795,1.455-3.25,3.25-3.25H47c2.393,0,4.534,1.056,6,2.721V38.5z" data-original="#414144" class="" data-old_color="#aaaaaa"></path></g> </svg>