<svg version="1.1" id="Capa_1" xmlns="http://www.w3.org/2000/svg" xmlns:xlink="http://www.w3.org/1999/xlink" x="0px" y="0px" viewBox="0 0 60 60" style="enable-background:new 0 0 60 60;" xml:space="preserve" width="33" height="33" class=""><g><rect x="13" y="42" style="fill:#AAAAAA" width="34" height="4" data-original="#BCB7B3" class="" data-old_color="#aaaaaa"></rect><rect x="14" y="7" style="fill:#DDDDDD" width="14" height="32" data-original="#7FABDA" class="" data-old_color="#dddddd"></rect><rect x="32" y="7" style="fill:#DDDDDD" width="14" height="32" data-original="#7FABDA" class="" data-old_color="#dddddd"></rect><polygon style="fill:#AAAAAA" points="49,7 49,4 11,4 11,7 28,7 28,39 13,39 13,42 47,42 47,39 32,39 32,7 " data-original="#EDE7E9" class="" data-old_color="#aaaaaa"></polygon><rect x="1" y="6" style="fill:#665F79" width="4" height="53" data-original="#DD352ESTROKE:#B02721;STROKE-WIDTH:2;STROKE-LINECAP:ROUND;STROKE-MITERLIMIT:10;" class="active-path" data-old_color="#BE6C84"></rect><rect x="5" y="6" style="fill:#665F79" width="4" height="53" data-original="#DD352ESTROKE:#B02721;STROKE-WIDTH:2;STROKE-LINECAP:ROUND;STROKE-MITERLIMIT:10;" class="active-path" data-old_color="#BE6C84"></rect><rect x="9" y="6" style="fill:#665F79" width="4" height="53" data-original="#DD352ESTROKE:#B02721;STROKE-WIDTH:2;STROKE-LINECAP:ROUND;STROKE-MITERLIMIT:10;" class="active-path" data-old_color="#BE6C84"></rect><rect x="47" y="6" style="fill:#665F79" width="4" height="53" data-original="#DD352ESTROKE:#B02721;STROKE-WIDTH:2;STROKE-LINECAP:ROUND;STROKE-MITERLIMIT:10;" class="active-path" data-old_color="#BE6C84"></rect><rect x="51" y="6" style="fill:#665F79" width="4" height="53" data-original="#DD352ESTROKE:#B02721;STROKE-WIDTH:2;STROKE-LINECAP:ROUND;STROKE-MITERLIMIT:10;" class="active-path" data-old_color="#BE6C84"></rect><rect x="55" y="6" style="fill:#665F79" width="4" height="53" data-original="#DD352ESTROKE:#B02721;STROKE-WIDTH:2;STROKE-LINECAP:ROUND;STROKE-MITERLIMIT:10;" class="active-path" data-old_color="#BE6C84"></rect><g>
	<path style="fill:#BE6C84" d="M3,0C2.448,0,2,0.447,2,1v4c0,0.553,0.448,1,1,1s1-0.447,1-1V1C4,0.447,3.552,0,3,0z" data-original="#7383BF" class="" data-old_color="#7383BF"></path>
	<path style="fill:#BE6C84" d="M7,0C6.448,0,6,0.447,6,1v4c0,0.553,0.448,1,1,1s1-0.447,1-1V1C8,0.447,7.552,0,7,0z" data-original="#7383BF" class="" data-old_color="#7383BF"></path>
	<path style="fill:#BE6C84" d="M11,0c-0.552,0-1,0.447-1,1v4c0,0.553,0.448,1,1,1s1-0.447,1-1V1C12,0.447,11.552,0,11,0z" data-original="#7383BF" class="" data-old_color="#7383BF"></path>
	<path style="fill:#BE6C84" d="M49,0c-0.552,0-1,0.447-1,1v4c0,0.553,0.448,1,1,1s1-0.447,1-1V1C50,0.447,49.552,0,49,0z" data-original="#7383BF" class="" data-old_color="#7383BF"></path>
	<path style="fill:#BE6C84" d="M53,0c-0.552,0-1,0.447-1,1v4c0,0.553,0.448,1,1,1s1-0.447,1-1V1C54,0.447,53.552,0,53,0z" data-original="#7383BF" class="" data-old_color="#7383BF"></path>
	<path style="fill:#BE6C84" d="M57,0c-0.552,0-1,0.447-1,1v4c0,0.553,0.448,1,1,1s1-0.447,1-1V1C58,0.447,57.552,0,57,0z" data-original="#7383BF" class="" data-old_color="#7383BF"></path>
</g><polygon style="fill:#EEEEEE" points="23,7 28,7 28,12 14,26 14,16 " data-original="#A4C9EA" class="" data-old_color="#eeeeee"></polygon><polygon style="fill:#EEEEEE" points="41,7 46,7 46,12 32,26 32,16 " data-original="#A4C9EA" class="" data-old_color="#eeeeee"></polygon></g> </svg>